<svg width="96" height="97" viewBox="0 0 96 97" fill="none" xmlns="http://www.w3.org/2000/svg">
<rect y="0.245728" width="96" height="96" fill="#002B28"/>
<path d="M30.4773 40.9449L40.3422 33.6283V65.0878H52.4134C56.9677 65.0878 60.1352 62.1581 60.1352 57.9123C60.1352 53.6665 56.9677 50.7368 52.4134 50.7368H45.7948L54.2572 42.3236C56.6052 39.9892 57.1253 38.5165 57.1253 36.9028C57.1253 33.691 54.6196 31.4193 50.6484 31.4193H30.4773V22.6457H52.3346C60.8758 22.6457 66.9744 27.7689 66.9744 35.148C66.9744 38.6575 66.2338 41.2895 63.5863 43.9216L61.8214 45.6763C66.612 48.0107 69.9844 52.7735 69.9844 58.8523C69.9844 67.7042 62.8457 73.8457 52.8389 73.8457H30.4615V40.9449H30.4773Z" fill="#E7E7E7"/>
</svg>
