<svg width="48" height="49" viewBox="0 0 48 49" fill="none" xmlns="http://www.w3.org/2000/svg">
<rect y="0.245728" width="48" height="48" fill="#002B28"/>
<path d="M15.2387 20.5953L20.1711 16.937V32.6668H26.2067C28.4838 32.6668 30.0676 31.2019 30.0676 29.079C30.0676 26.9561 28.4838 25.4913 26.2067 25.4913H22.8974L27.1286 21.2847C28.3026 20.1175 28.5626 19.3811 28.5626 18.5743C28.5626 16.9684 27.3098 15.8325 25.3242 15.8325H15.2387V11.4457H26.1673C30.4379 11.4457 33.4872 14.0073 33.4872 17.6969C33.4872 19.4516 33.1169 20.7676 31.7932 22.0837L30.9107 22.961C33.306 24.1282 34.9922 26.5096 34.9922 29.549C34.9922 33.975 31.4228 37.0457 26.4194 37.0457H15.2308V20.5953H15.2387Z" fill="#E7E7E7"/>
</svg>
