<svg width="260" height="261" viewBox="0 0 260 261" fill="none" xmlns="http://www.w3.org/2000/svg">
<rect y="0.245728" width="260" height="260" fill="#002B28"/>
<path d="M82.5427 110.473L109.26 90.657V175.86H141.953C154.287 175.86 162.866 167.925 162.866 156.426C162.866 144.927 154.287 136.992 141.953 136.992H124.027L146.946 114.207C153.306 107.884 154.714 103.896 154.714 99.5252C154.714 90.8267 147.928 84.6741 137.173 84.6741H82.5427V60.9124H141.74C164.872 60.9124 181.389 74.7875 181.389 94.7728C181.389 104.278 179.383 111.406 172.213 118.535L167.433 123.287C180.407 129.609 189.541 142.508 189.541 158.972C189.541 182.946 170.207 199.579 143.105 199.579H82.5V110.473H82.5427Z" fill="#E7E7E7"/>
</svg>
