<svg width="192" height="193" viewBox="0 0 192 193" fill="none" xmlns="http://www.w3.org/2000/svg">
<rect y="0.245728" width="192" height="192" fill="#002B28"/>
<path d="M60.9546 81.644L80.6844 67.011V129.93H104.827C113.935 129.93 120.27 124.07 120.27 115.579C120.27 107.087 113.935 101.228 104.827 101.228H91.5895L108.514 84.4014C113.21 79.7326 114.25 76.7872 114.25 73.5598C114.25 67.1363 109.239 62.5928 101.297 62.5928H60.9546V45.0457H104.669C121.752 45.0457 133.949 55.292 133.949 70.0504C133.949 77.0692 132.467 82.3334 127.173 87.5975L123.643 91.1069C133.224 95.7757 139.969 105.301 139.969 117.459C139.969 135.163 125.691 147.446 105.678 147.446H60.923V81.644H60.9546Z" fill="#E7E7E7"/>
</svg>
