<svg width="144" height="145" viewBox="0 0 144 145" fill="none" xmlns="http://www.w3.org/2000/svg">
<rect y="0.245728" width="144" height="144" fill="#002B28"/>
<path d="M45.716 61.2944L60.5134 50.3197V97.5089H78.6201C85.4515 97.5089 90.2027 93.1143 90.2027 86.7456C90.2027 80.3769 85.4515 75.9823 78.6201 75.9823H68.6921L81.3858 63.3625C84.9078 59.8609 85.6879 57.6519 85.6879 55.2313C85.6879 50.4137 81.9294 47.0061 75.9726 47.0061H45.716V33.8457H78.5019C91.3137 33.8457 100.462 41.5304 100.462 52.5992C100.462 57.8634 99.3507 61.8115 95.3795 65.7596L92.732 68.3916C99.918 71.8932 104.977 79.0374 104.977 88.1556C104.977 101.433 94.2685 110.646 79.2583 110.646H45.6923V61.2944H45.716Z" fill="#E7E7E7"/>
</svg>
