<svg width="32" height="33" viewBox="0 0 32 33" fill="none" xmlns="http://www.w3.org/2000/svg">
<rect y="0.245728" width="32" height="32" fill="#002B28"/>
<path d="M10.1591 13.8121L13.4474 11.3733V21.8598H17.4711C18.9892 21.8598 20.045 20.8832 20.045 19.4679C20.045 18.0527 18.9892 17.0761 17.4711 17.0761H15.2649L18.0857 14.2717C18.8684 13.4936 19.0417 13.0027 19.0417 12.4647C19.0417 11.3942 18.2065 10.6369 16.8828 10.6369H10.1591V7.7124H17.4449C20.2919 7.7124 22.3248 9.42011 22.3248 11.8798C22.3248 13.0497 22.0779 13.927 21.1954 14.8044L20.6071 15.3893C22.204 16.1674 23.3281 17.755 23.3281 19.7813C23.3281 22.7319 20.9485 24.7791 17.613 24.7791H10.1538V13.8121H10.1591Z" fill="#E7E7E7"/>
</svg>
