<svg width="72" height="73" viewBox="0 0 72 73" fill="none" xmlns="http://www.w3.org/2000/svg">
<rect y="0.245728" width="72" height="72" fill="#002B28"/>
<path d="M22.858 30.7701L30.2567 25.2827V48.8773H39.31C42.7257 48.8773 45.1013 46.68 45.1013 43.4957C45.1013 40.3113 42.7257 38.114 39.31 38.114H34.346L40.6929 31.8041C42.4539 30.0533 42.8439 28.9488 42.8439 27.7385C42.8439 25.3297 40.9647 23.6259 37.9863 23.6259H22.858V17.0457H39.2509C45.6568 17.0457 50.2308 20.8881 50.2308 26.4225C50.2308 29.0545 49.6753 31.0286 47.6897 33.0026L46.366 34.3187C49.959 36.0695 52.4882 39.6416 52.4882 44.2007C52.4882 50.8396 47.1342 55.4457 39.6291 55.4457H22.8461V30.7701H22.858Z" fill="#E7E7E7"/>
</svg>
