<svg width="224" height="225" viewBox="0 0 224 225" fill="none" xmlns="http://www.w3.org/2000/svg">
<rect y="0.245728" width="224" height="224" fill="#002B28"/>
<path d="M71.1137 95.2104L94.1319 78.1385V151.544H122.298C132.925 151.544 140.315 144.708 140.315 134.801C140.315 124.894 132.925 118.058 122.298 118.058H106.854L126.6 98.4274C132.079 92.9804 133.292 89.5441 133.292 85.7788C133.292 78.2847 127.446 72.984 118.18 72.984H71.1137V52.5124H122.114C142.044 52.5124 156.274 64.4664 156.274 81.6845C156.274 89.8731 154.545 96.0146 148.368 102.156L144.25 106.25C155.428 111.697 163.297 122.811 163.297 136.994C163.297 157.649 146.64 171.979 123.291 171.979H71.0769V95.2104H71.1137Z" fill="#E7E7E7"/>
</svg>
